<?xml version="1.0" encoding="UTF-8" standalone="no"?>
<!-- Created with Inkscape (http://www.inkscape.org/) -->

<svg
   xmlns:dc="http://purl.org/dc/elements/1.1/"
   xmlns:cc="http://creativecommons.org/ns#"
   xmlns:rdf="http://www.w3.org/1999/02/22-rdf-syntax-ns#"
   xmlns:svg="http://www.w3.org/2000/svg"
   xmlns="http://www.w3.org/2000/svg"
   xmlns:xlink="http://www.w3.org/1999/xlink"
   xmlns:sodipodi="http://sodipodi.sourceforge.net/DTD/sodipodi-0.dtd"
   xmlns:inkscape="http://www.inkscape.org/namespaces/inkscape"
   width="193.72261mm"
   height="125.22661mm"
   viewBox="0 0 193.72261 125.22661"
   version="1.1"
   id="svg44902"
   inkscape:version="0.92pre1_64bit r15044"
   sodipodi:docname="Shooting Star.svg">
  <defs
     id="defs44896">
    <filter
       inkscape:collect="always"
       style="color-interpolation-filters:sRGB"
       id="filter44879"
       x="-0.019042069"
       width="1.0380841"
       y="-0.032448534"
       height="1.0648971">
      <feGaussianBlur
         inkscape:collect="always"
         stdDeviation="0.8808004"
         id="feGaussianBlur44881" />
    </filter>
    <radialGradient
       inkscape:collect="always"
       xlink:href="#linearGradient44857"
       id="radialGradient44046"
       cx="253.50504"
       cy="49.102692"
       fx="253.50504"
       fy="49.102692"
       r="54.801048"
       gradientTransform="matrix(1.4872497,0.63559031,-0.19039127,0.44551416,-114.17156,-127.27789)"
       gradientUnits="userSpaceOnUse" />
    <linearGradient
       id="linearGradient44857"
       y2="409.51001"
       gradientUnits="userSpaceOnUse"
       x2="374.29001"
       y1="238.08"
       x1="374.29001"
       inkscape:collect="always">
      <stop
         id="stop44853"
         style="stop-color:#faff25"
         offset="0" />
      <stop
         offset="0.77202982"
         style="stop-color:#f58608;stop-opacity:1"
         id="stop44865" />
      <stop
         offset="0.90583605"
         style="stop-color:#f91212;stop-opacity:1"
         id="stop44863" />
      <stop
         id="stop44855"
         style="stop-color:#b30000;stop-opacity:0.38333333"
         offset="1" />
    </linearGradient>
  </defs>
  <sodipodi:namedview
     id="base"
     pagecolor="#ffffff"
     bordercolor="#666666"
     borderopacity="1.0"
     inkscape:pageopacity="0.0"
     inkscape:pageshadow="2"
     inkscape:zoom="0.35"
     inkscape:cx="374.66136"
     inkscape:cy="193.79155"
     inkscape:document-units="mm"
     inkscape:current-layer="layer1"
     showgrid="false"
     fit-margin-top="10"
     fit-margin-left="10"
     fit-margin-right="10"
     fit-margin-bottom="10"
     inkscape:window-width="1366"
     inkscape:window-height="745"
     inkscape:window-x="-8"
     inkscape:window-y="-8"
     inkscape:window-maximized="1" />
  <metadata
     id="metadata44899">
    <rdf:RDF>
      <cc:Work
         rdf:about="">
        <dc:format>image/svg+xml</dc:format>
        <dc:type
           rdf:resource="http://purl.org/dc/dcmitype/StillImage" />
        <dc:title></dc:title>
        <cc:license
           rdf:resource="http://creativecommons.org/publicdomain/zero/1.0/" />
      </cc:Work>
      <cc:License
         rdf:about="http://creativecommons.org/publicdomain/zero/1.0/">
        <cc:permits
           rdf:resource="http://creativecommons.org/ns#Reproduction" />
        <cc:permits
           rdf:resource="http://creativecommons.org/ns#Distribution" />
        <cc:permits
           rdf:resource="http://creativecommons.org/ns#DerivativeWorks" />
      </cc:License>
    </rdf:RDF>
  </metadata>
  <g
     inkscape:label="Layer 1"
     inkscape:groupmode="layer"
     id="layer1"
     transform="translate(-6.7041826,-74.880742)">
    <g
       transform="matrix(1.4941281,0,0,1.4941281,-322.75763,39.996138)"
       id="g44916">
      <path
         d="m 251.83008,32.1875 c -0.10797,0.0045 -0.21384,0.0246 -0.31641,0.05859 v -0.002 c -1.29775,0.426989 -1.95108,1.457426 -2.15429,2.328125 -0.18375,0.787334 -0.25671,1.435565 -0.3086,1.529296 -0.65811,1.188863 -1.08773,2.419702 -1.60937,3.367188 -0.60451,1.097976 -1.16285,2.212474 -1.74024,3.251953 -0.48756,0.877778 -1.45723,2.27824 -2.125,3.402344 -0.54675,0.251753 -0.9646,0.587301 -1.21094,0.878906 -0.14349,0.169866 -0.22225,0.261572 -0.26171,0.292969 -0.0395,0.0314 -0.061,0.04835 -0.22461,0.08008 -0.21462,0.04161 -1.04152,-0.01858 -1.85547,-0.144531 -0.81409,-0.12597 -1.72253,-0.311541 -2.6543,-0.132813 -0.71836,0.137795 -2.18012,-0.311973 -3.80078,-0.0078 -0.23887,0.04483 -0.70653,-0.07024 -1.42188,-0.0957 -0.81893,-0.02916 -1.83625,0.356154 -2.50586,1.375 a 0.49890449,0.49890449 0 0 0 -0.002,0.002 c -0.0626,0.09674 -0.111,0.203626 -0.14258,0.314453 -0.40584,1.410941 -0.0203,2.614889 0.64453,3.357422 0.62012,0.692555 1.31819,1.102916 1.50391,1.304687 0.96691,1.05046 1.7719,1.443218 2.48828,2.189453 0.88044,0.917122 1.9506,1.946383 2.75391,2.810547 0.73399,0.789594 1.69867,1.835479 2.43945,2.691406 -0.14522,0.870644 -0.53512,1.870088 -0.67578,3.15625 -0.12231,1.118447 -0.35438,1.658059 -0.52734,2.986329 -0.13556,1.04094 -0.63869,2.672658 -0.82813,4.068359 -0.0525,0.387857 -0.28185,0.977986 -0.46875,1.664062 -0.19075,0.700218 -0.33118,1.656552 0.17774,2.564454 a 0.49890449,0.49890449 0 0 0 0.002,0.002 c 0.15487,0.274365 0.42482,0.480235 0.73047,0.55664 0.99939,0.251343 1.90707,0.0087 2.59961,-0.316406 0.67722,-0.317932 1.21658,-0.693846 1.66406,-0.904297 1.23332,-0.580036 2.57354,-1.389522 3.64062,-1.923828 1.02126,-0.511354 2.81619,-1.176571 4.0293,-1.691406 0.79641,-0.337991 1.74326,-0.381782 2.91602,-0.623047 1.00465,0.414653 2.0546,0.879819 3.04101,1.337891 1.01536,0.471507 1.91778,1.03618 3.07227,1.59375 1.0177,0.49151 1.47891,0.846725 2.65039,1.384765 0.33997,0.156144 0.88783,0.583522 1.58008,0.919922 0.74841,0.363701 1.86205,0.525964 2.80859,-0.150391 0.0698,-0.04969 0.13416,-0.106144 0.19141,-0.169921 a 0.49890449,0.49890449 0 0 0 0,-0.002 c 0.89366,-0.99813 1.02081,-2.235942 0.91406,-3.21875 -0.10498,-0.966441 -0.3869,-1.829496 -0.44531,-2.234376 -0.18757,-1.300008 -0.40014,-1.865411 -0.54688,-3 -0.10435,-0.806829 -0.39586,-1.41362 -0.60156,-1.861328 -0.20642,-0.449243 -0.33252,-0.737245 -0.37305,-1.154296 -0.0464,-0.477119 0.0764,-1.288073 0.17188,-2.003907 0.0819,0.151533 0.1513,0.32037 0.26367,0.419922 0.10969,0.09718 0.23646,0.140702 0.35742,0.199219 a 0.49890449,0.49890449 0 0 0 0.20313,0.117187 c 0.002,6.48e-4 0.004,0.0013 0.006,0.002 1.48266,0.42851 2.88219,0.473659 3.98632,0.792969 1.30895,0.378538 2.4913,0.715805 3.79493,1.095703 1.43218,0.41736 3.19542,0.687211 4.36132,1.035157 1.09729,0.327462 2.51393,1.127978 3.9961,1.58789 1.4445,0.448227 2.46126,0.481078 3.59375,0.851563 1.43987,0.471034 2.66382,0.582496 3.78125,0.972656 0.87584,0.305807 2.28785,1.534298 3.89258,2.138672 1.30317,0.490809 2.48473,0.876863 3.69531,1.373047 1.14823,0.470633 2.13158,1.094968 3.45898,1.691406 1.26342,0.567678 2.97703,1.289696 4.13867,1.865234 1.2232,0.606039 2.46206,1.210476 3.62305,1.847657 a 0.49890449,0.49890449 0 0 0 0.0234,0.01172 c 0.97142,0.504363 1.51871,1.093159 2.73437,1.802735 0.66703,0.389344 1.46372,0.711947 2.20313,1.013672 0.73941,0.301725 1.42739,0.588882 1.80664,0.832031 1.02297,0.655858 2.00566,1.382653 3.07031,2.117187 1.11107,0.766558 1.43146,0.822314 2.38282,1.515625 0.958,0.698157 2.2491,1.80202 3.30859,2.603516 1.23996,0.938024 2.74791,1.460965 3.48633,2.03125 0.33677,0.260089 0.5488,0.564404 0.84765,1.011719 0.29876,0.447181 0.68596,1.044712 1.35352,1.5625 0.99902,0.77489 1.90303,1.48303 2.91406,2.257812 0.26881,0.205997 0.74216,0.796197 1.20703,1.431641 0.46469,0.635214 0.96274,1.360828 1.6875,1.90039 a 0.49890449,0.49890449 0 0 0 0.002,0 c 0.40946,0.303455 1.0242,0.291411 1.42187,-0.02734 0.39767,-0.318754 0.54104,-0.915161 0.33399,-1.38086 -0.0987,-0.221028 -0.21841,-0.730571 -0.32618,-1.273437 -0.10776,-0.542821 -0.21736,-1.161757 -0.48828,-1.767578 -0.37211,-0.832107 -0.82546,-1.90144 -1.20508,-2.763672 -0.0436,-0.09899 -0.0687,-0.391291 -0.0996,-0.63086 0.44337,0.16791 0.83246,0.338924 1.4668,0.492188 1.27621,0.308345 2.67922,0.615821 4.07422,0.328125 0.41064,-0.08408 0.76352,-0.406766 0.88281,-0.808594 0.11904,-0.400967 -3e-5,-0.863587 -0.29687,-1.158203 l -0.002,-0.002 c -0.88382,-0.876535 -2.12343,-2.144188 -3.08789,-3.044922 -0.61251,-0.572047 -1.03956,-1.848914 -2.28125,-2.9375 -1.04354,-0.914875 -2.01414,-1.48897 -2.91406,-2.226562 -0.92554,-0.758599 -1.78913,-1.627742 -3.14844,-2.251953 -1.55933,-0.716066 -2.16054,-1.284569 -3.25586,-2.056641 -0.84115,-0.592925 -1.77042,-1.71022 -3.04296,-2.533203 -1.03878,-0.671807 -2.37392,-1.597448 -3.52735,-2.275391 -1.19136,-0.700234 -1.8034,-0.807629 -2.79492,-1.326172 l -0.0137,-0.0078 c -1.24847,-0.705549 -2.29407,-1.058955 -3.39453,-1.601563 -1.38388,-0.682363 -3.42585,-1.247075 -4.48633,-1.699218 -1.0207,-0.435177 -2.11723,-1.291691 -3.57813,-1.826172 -1.24781,-0.456522 -2.07284,-0.744935 -3.35156,-1.142578 -1.20493,-0.374701 -2.82213,-0.985607 -4.20117,-1.345704 -1.55148,-0.405121 -3.17539,-0.296199 -4.20117,-0.517578 -1.23791,-0.267159 -1.88636,-0.501112 -3.25586,-0.740234 -1.39959,-0.244374 -2.81844,-0.312681 -4.05664,-0.482422 -0.38931,-0.05337 -1.17413,-0.341786 -1.96875,-0.660156 -0.79342,-0.317888 -1.64798,-0.683206 -2.5625,-0.777344 -1.15816,-0.119217 -2.34579,-0.506494 -3.83203,-0.613281 -1.57056,-0.112848 -2.74748,0.261087 -3.8086,0.214843 -1.60318,-0.06986 -3.03692,0.379734 -4.06445,0.361329 -0.88577,-0.01587 -2.01749,-0.454097 -3.43555,-0.53711 0.22543,-0.2659 0.45599,-0.564164 0.66992,-0.802734 0.55729,-0.621476 0.88928,-1.300994 1.15821,-1.880859 0.26892,-0.579866 0.48954,-1.055837 0.7207,-1.298829 0.66128,-0.695124 1.97538,-1.489498 2.99805,-2.541015 0.23604,-0.242702 0.8742,-0.645331 1.47851,-1.105469 0.30213,-0.230051 0.62673,-0.501944 0.89453,-0.880859 0.28224,-0.399326 0.48575,-0.944075 0.40235,-1.548828 v -0.002 c -0.007,-0.05124 -0.0158,-0.102462 -0.0293,-0.152343 a 0.49890449,0.49890449 0 0 0 -0.002,-0.0039 c -0.18574,-0.664354 -0.66177,-1.153383 -1.20313,-1.40039 -0.49992,-0.228102 -0.99409,-0.270332 -1.42383,-0.283203 -0.86028,-0.02577 -1.76051,0.03186 -1.97851,-0.01367 -1.22911,-0.256721 -2.02102,-0.398195 -3.24414,-0.621094 -0.76288,-0.139028 -1.62182,-0.151699 -2.44922,-0.173828 -0.8273,-0.02213 -1.64424,-0.05646 -2.0918,-0.138672 -0.9841,-0.180762 -1.59722,-0.396929 -2.56836,-0.628906 -0.71949,-0.971911 -1.53425,-1.68803 -1.89648,-2.353516 -0.3554,-0.652897 -0.41912,-2.219264 -1.19141,-3.658203 -0.54114,-1.008261 -0.86583,-1.824751 -1.47656,-2.886719 -0.24565,-0.625586 -0.4675,-1.402347 -0.88867,-2.199219 -0.43646,-0.825798 -1.12645,-1.662964 -2.21094,-2.201171 a 0.49890449,0.49890449 0 0 0 -0.002,0 c -0.17306,-0.08553 -0.36765,-0.12657 -0.56055,-0.119141 a 0.49890449,0.49890449 0 0 0 -0.002,0 z"
         id="path44867"
         style="opacity:1;fill:#000000;fill-opacity:1;stroke:#fffa8c;stroke-width:0.02300526;filter:url(#filter44879)"
         inkscape:original="M 251.85156 32.685547 A 0.66520649 0.66520649 0 0 0 251.66992 32.71875 C 250.54738 33.088092 250.01675 33.95266 249.8457 34.685547 C 249.67466 35.418433 249.6632 36.024243 249.48633 36.34375 C 248.85553 37.483276 248.43108 38.706048 247.87891 39.708984 C 247.28057 40.795761 246.72113 41.910764 246.13672 42.962891 C 245.60539 43.919468 244.58254 45.380868 243.93359 46.490234 C 243.37569 46.707303 242.9703 47.058802 242.74609 47.324219 C 242.47273 47.647827 242.39276 47.784157 241.97461 47.865234 C 241.5681 47.944055 240.77266 47.850377 239.94727 47.722656 C 239.12187 47.594935 238.26728 47.433597 237.46289 47.587891 C 236.50425 47.771775 235.12438 47.305277 233.66016 47.580078 C 233.24603 47.657802 232.78011 47.515372 232.12891 47.492188 C 231.4777 47.469003 230.63148 47.767917 230.05664 48.642578 A 0.66520649 0.66520649 0 0 0 229.97461 48.824219 C 229.61143 50.086831 229.95694 51.091346 230.51172 51.710938 C 231.0665 52.330528 231.70782 52.679606 232.01172 53.009766 C 232.9245 54.001417 233.713 54.379751 234.49219 55.191406 C 235.36167 56.097112 236.43291 57.126719 237.25195 58.007812 C 238.03385 58.848945 239.09972 59.994508 239.86523 60.890625 C 239.73747 61.897435 239.28728 62.96258 239.14648 64.25 C 239.01882 65.417364 238.78479 65.959018 238.61719 67.246094 C 238.47072 68.370869 237.96917 69.989438 237.78906 71.316406 C 237.72238 71.808983 237.48364 72.395187 237.30664 73.044922 C 237.12964 73.694657 237.02259 74.490696 237.43945 75.234375 A 0.66520649 0.66520649 0 0 0 237.85742 75.552734 C 238.71564 75.768572 239.49391 75.564887 240.12305 75.269531 C 240.75218 74.974176 241.28022 74.603628 241.78711 74.365234 C 242.98398 73.802339 244.32132 72.996373 245.41797 72.447266 C 246.49132 71.909826 248.28293 71.247928 249.47461 70.742188 C 250.42826 70.337464 251.44336 70.329233 252.65039 70.0625 C 253.70145 70.493384 254.80553 70.983483 255.83789 71.462891 C 256.88805 71.950562 257.78968 72.516572 258.91602 73.060547 C 259.96421 73.566782 260.41827 73.917675 261.55859 74.441406 C 261.99882 74.643596 262.51883 75.059272 263.14844 75.365234 C 263.77804 75.671197 264.6859 75.803245 265.44922 75.257812 A 0.66520649 0.66520649 0 0 0 265.55859 75.160156 C 266.33201 74.296321 266.44536 73.227579 266.34766 72.328125 C 266.24996 71.428671 265.97704 70.613592 265.9043 70.109375 C 265.72153 68.842641 265.50914 68.276593 265.35742 67.103516 C 265.26404 66.381547 265.00513 65.839981 264.79688 65.386719 C 264.58861 64.933456 264.42932 64.570899 264.38086 64.072266 C 264.29033 63.140681 264.64258 62.044126 264.65625 60.783203 C 265.40686 59.858992 266.26004 58.798812 267.02539 57.945312 C 268.02904 56.826062 268.26152 55.4418 268.91406 54.755859 C 269.66115 53.970535 270.95918 53.194766 271.91602 52.210938 C 272.24433 51.873365 272.87425 51.49444 273.44922 51.056641 C 273.7367 50.837741 274.01558 50.600252 274.23828 50.285156 C 274.46098 49.970061 274.6178 49.538597 274.55469 49.087891 A 0.66520649 0.66520649 0 0 0 274.53711 49 C 274.39612 48.4957 274.01487 48.103878 273.60742 47.917969 C 273.19997 47.73206 272.78217 47.691884 272.375 47.679688 C 271.56066 47.655293 270.72554 47.742927 270.31055 47.65625 C 269.08741 47.400777 268.30189 47.260126 267.07812 47.037109 C 266.37732 46.909395 265.53505 46.893292 264.70508 46.871094 C 263.8751 46.848895 263.05841 46.820365 262.53711 46.724609 C 261.45332 46.525536 260.84441 46.295075 259.77734 46.050781 C 259.07291 45.040161 258.18471 44.335517 257.72461 43.490234 C 257.25664 42.630524 257.23068 41.133264 256.53125 39.830078 C 255.96859 38.781728 255.65089 37.969201 255.04102 36.916016 C 254.77869 36.253165 254.56007 35.489496 254.16406 34.740234 C 253.76303 33.981473 253.14927 33.238964 252.17188 32.753906 A 0.66520649 0.66520649 0 0 0 251.85156 32.685547 z M 266.32227 59.527344 A 0.66520649 0.66520649 0 0 0 265.67578 60.052734 A 0.66520649 0.66520649 0 0 0 265.4707 61.039062 C 265.4707 61.039062 265.46875 61.041016 265.46875 61.041016 C 265.40844 61.172534 265.31177 61.358728 265.38672 61.669922 C 265.46143 61.98013 265.78743 62.215461 266.00977 62.275391 C 266.00977 62.275391 266.01172 62.277344 266.01172 62.277344 C 267.42138 62.685784 268.80918 62.726757 270.00391 63.072266 C 271.3118 63.4505 272.49356 63.787591 273.79883 64.167969 C 275.17864 64.570066 276.93667 64.836831 278.16406 65.203125 C 279.35447 65.558378 280.7584 66.356188 282.16602 66.792969 C 283.55118 67.222782 284.5618 67.252665 285.76562 67.646484 C 287.14551 68.097897 288.36484 68.206919 289.55664 68.623047 C 290.62587 68.996377 291.98584 70.21007 293.46094 70.765625 C 294.75167 71.251747 295.93829 71.639721 297.16992 72.144531 C 298.36704 72.635203 299.35294 73.26145 300.64453 73.841797 C 301.89821 74.405102 303.61152 75.126588 304.79883 75.714844 C 306.02005 76.319906 307.26583 76.927079 308.44141 77.572266 A 0.66520649 0.66520649 0 0 0 308.45508 77.578125 C 309.49543 78.118275 310.04545 78.71229 311.21094 79.392578 C 312.45079 80.116283 314.33608 80.671569 315.23828 81.25 C 316.27995 81.917848 317.26641 82.648484 318.32227 83.376953 C 319.405 84.123959 319.73168 84.183902 320.71484 84.900391 C 321.70162 85.619516 322.99221 86.721784 324.03125 87.507812 C 325.18037 88.377116 326.66014 88.877746 327.52148 89.542969 C 327.92802 89.856941 328.17795 90.221997 328.47852 90.671875 C 328.77908 91.121753 329.12927 91.655415 329.72461 92.117188 C 330.72494 92.893095 331.62644 93.600337 332.63477 94.373047 C 333.01354 94.663313 333.47283 95.265735 333.94141 95.90625 C 334.40998 96.546765 334.88786 97.226552 335.52539 97.701172 A 0.66520649 0.66520649 0 0 0 336.5293 96.896484 C 336.38823 96.580546 336.27679 96.065734 336.16797 95.517578 C 336.05915 94.969422 335.95309 94.388232 335.71484 93.855469 C 335.33952 93.016187 334.88528 91.947197 334.50781 91.089844 C 334.3835 90.807509 334.34017 90.398274 334.30664 89.912109 C 334.29854 89.794699 334.24453 89.646789 334.23438 89.521484 C 334.89801 89.760571 335.51113 90.038972 336.44922 90.265625 C 337.71546 90.571562 339.04845 90.849829 340.30664 90.589844 A 0.66520649 0.66520649 0 0 0 340.64062 89.464844 C 339.75167 88.583271 338.51267 87.31708 337.5625 86.429688 C 336.80116 85.718646 336.42271 84.492392 335.29297 83.501953 C 334.2883 82.621158 333.32691 82.054511 332.39062 81.287109 C 331.44057 80.508419 330.62125 79.685515 329.34961 79.101562 C 327.74251 78.363562 327.08612 77.754578 326.01562 77 C 325.08498 76.343999 324.17604 75.244711 322.98828 74.476562 C 321.93797 73.797296 320.60743 72.875277 319.48047 72.212891 C 318.32962 71.536468 317.73911 71.440834 316.69141 70.890625 C 315.4789 70.203461 314.44769 69.856582 313.30859 69.294922 C 312.0051 68.652198 309.97722 68.089017 308.84766 67.607422 C 307.73747 67.134092 306.66369 66.292506 305.29297 65.791016 C 304.04805 65.335552 303.23639 65.051664 301.96484 64.65625 C 300.73478 64.273736 299.12204 63.665492 297.78516 63.316406 C 296.34396 62.940082 294.75443 63.052649 293.60547 62.804688 C 292.34461 62.532576 291.71037 62.302544 290.36914 62.068359 C 289.01102 61.831225 287.59991 61.761968 286.33008 61.587891 C 285.81759 61.517635 285.04185 61.216092 284.24414 60.896484 C 283.44643 60.576877 282.62728 60.235813 281.81641 60.152344 C 280.58828 60.025924 279.4166 59.6428 278 59.541016 C 276.53151 59.435502 275.38476 59.807269 274.20508 59.755859 C 272.71498 59.690922 271.31488 60.138012 270.15234 60.117188 C 269.01281 60.096777 267.83517 59.519304 266.32227 59.527344 z "
         inkscape:radius="0.49885461"
         sodipodi:type="inkscape:offset" />
      <path
         sodipodi:nodetypes="ccccscscccscscccccsccsscccccccsccscccccccccccsssscsccccccccccccccccccscsscscccscsssssssccccc"
         inkscape:connector-curvature="0"
         id="path4621"
         d="m 250.06864,36.666483 c -0.59221,1.069813 -1.01828,2.290518 -1.60835,3.362285 -0.58982,1.071308 -1.14755,2.187768 -1.74136,3.256814 -0.59409,1.069568 -1.70825,2.63977 -2.31248,3.702855 -1.21131,0.234902 -1.09297,1.293935 -2.30419,1.528787 -1.21132,0.234872 -3.30226,-0.508933 -4.51386,-0.27653 -1.21188,0.23246 -2.59339,-0.234264 -3.80592,-0.0067 -1.21283,0.227625 -2.20393,-0.693195 -3.16835,0.774251 -0.63317,2.201257 1.05203,2.641726 1.88869,3.550696 0.83453,0.906643 1.6145,1.280405 2.46934,2.17087 0.8548,0.890409 1.92748,1.922068 2.76683,2.825002 0.84099,0.904699 2.05344,2.192151 2.84298,3.138263 -0.0897,1.233649 -0.63847,2.397301 -0.77328,3.629993 -0.1345,1.229864 -0.37087,1.780039 -0.53091,3.009074 -0.15989,1.227873 -0.66386,2.846725 -0.83042,4.073895 -0.1663,1.228368 -1.02252,2.440258 -0.42751,3.501761 1.36413,0.343072 2.33032,-0.602144 3.4838,-1.144636 1.1463,-0.539111 2.4827,-1.342735 3.61729,-1.91084 1.14022,-0.570921 2.93304,-1.229392 4.09383,-1.722023 1.17447,-0.498437 2.27829,-0.454991 3.50728,-0.762235 1.11925,0.453469 2.30027,0.98358 3.3956,1.492229 1.09471,0.508359 2.00004,1.076377 3.0875,1.601574 1.08759,0.525261 1.53317,0.872788 2.63015,1.376611 1.09752,0.50407 2.10408,1.681982 3.22766,0.879128 1.24039,-1.385406 0.36033,-3.290869 0.18408,-4.512489 -0.17606,-1.220228 -0.3921,-1.792417 -0.55025,-3.015211 -0.15827,-1.22369 -0.8589,-1.826543 -0.97808,-3.052875 -0.11935,-1.22813 0.35686,-2.395642 0.29796,-3.626495 0.77524,-0.953671 1.68941,-2.089079 2.51321,-3.007762 0.82069,-0.915217 1.05143,-2.313436 1.901,-3.206487 0.84859,-0.892016 2.15049,-1.665103 3.00868,-2.547504 0.85987,-0.884127 2.60533,-1.514896 2.45783,-2.568208 -0.36787,-1.315845 -2.50432,-0.618229 -3.72418,-0.873016 -1.21505,-0.253784 -1.98913,-0.392692 -3.21392,-0.615897 -1.22307,-0.222892 -3.32159,-0.08843 -4.54377,-0.312926 -1.22517,-0.225042 -1.79529,-0.475572 -3.00891,-0.734494 -0.6283,-1.027304 -1.66405,-1.730953 -2.26506,-2.835117 -0.58775,-1.07977 -0.6137,-2.578922 -1.19621,-3.664268 -0.59338,-1.105594 -0.89959,-1.914762 -1.50914,-2.955796 -0.56581,-1.418262 -0.87574,-3.003201 -2.55936,-3.838729 -1.86995,0.615258 -1.21547,2.245418 -1.8082,3.316146 z m 16.29017,24.141721 c -0.16437,0.353336 -0.53692,0.731013 -0.17625,0.826691 1.30503,0.380781 2.69738,0.419622 4.00604,0.79808 1.30649,0.377828 2.48739,0.715947 3.79485,1.096963 1.30612,0.380623 3.06539,0.646813 4.36984,1.036102 1.30402,0.38916 2.70987,1.188498 4.00958,1.591795 1.3001,0.403417 2.31601,0.43339 3.60916,0.85643 1.29402,0.423325 2.51862,0.531161 3.80304,0.979627 1.28544,0.448821 2.64689,1.668456 3.92006,2.14796 1.274,0.47982 2.46684,0.872325 3.7259,1.388381 1.25937,0.516182 2.25426,1.14632 3.49602,1.704276 1.24071,0.557479 2.95609,1.279319 4.17657,1.884009 1.21809,0.603509 2.4734,1.21292 3.6687,1.868934 1.12662,0.584939 1.69188,1.192245 2.78496,1.830273 1.09522,0.639274 2.98375,1.187134 4.05041,1.871004 1.06677,0.683939 2.05834,1.420959 3.10168,2.140791 1.04288,0.719512 1.38374,0.787336 2.40832,1.534007 1.02396,0.746225 2.31256,1.847936 3.32336,2.612599 1.01081,0.764674 2.49455,1.265805 3.4973,2.040233 1.00361,0.77509 1.20396,1.799099 2.20462,2.575256 1.0023,0.777436 1.90162,1.483609 2.9061,2.253373 1.00742,0.772021 1.86847,2.568022 2.88326,3.32351 -0.37877,-0.848332 -0.43569,-2.193293 -0.81538,-3.042339 -0.37953,-0.848684 -0.8346,-1.917011 -1.20921,-2.767876 -0.37481,-0.851281 -0.13869,-1.949517 -0.50275,-2.80445 1.11238,0.122671 2.03664,0.781539 3.21021,1.065087 1.24442,0.300664 2.50311,0.538684 3.56644,0.318962 -0.89572,-0.888276 -2.1333,-2.153728 -3.06307,-3.022066 -0.92298,-0.862005 -1.2987,-2.075439 -2.25409,-2.913028 -0.95076,-0.833531 -1.90474,-1.398276 -2.88647,-2.202934 -0.97877,-0.802228 -1.74286,-1.564823 -2.89528,-2.094029 -1.67241,-0.767992 -2.40443,-1.431898 -3.4402,-2.161999 -1.03602,-0.730278 -1.94169,-1.821726 -3.00512,-2.509469 -1.06485,-0.688668 -2.39411,-1.606097 -3.48533,-2.247474 -1.09389,-0.642945 -1.65982,-0.727853 -2.77909,-1.318603 -1.15349,-0.653717 -2.16666,-0.995485 -3.34864,-1.578291 -1.18755,-0.585555 -3.21512,-1.154739 -4.42863,-1.672127 -1.21693,-0.518842 -2.28099,-1.348443 -3.52119,-1.802181 -1.24139,-0.454173 -2.03423,-0.73138 -3.2961,-1.123784 -1.26164,-0.392335 -2.87217,-0.997124 -4.15146,-1.331172 -1.27779,-0.333656 -2.85916,-0.227271 -4.15172,-0.506225 -1.29074,-0.278561 -1.90867,-0.505233 -3.21131,-0.73268 -1.30107,-0.227174 -2.70426,-0.296927 -4.0144,-0.476531 -1.3086,-0.179394 -3.17671,-1.295601 -4.49156,-1.430947 -1.31437,-0.135297 -2.47732,-0.513817 -3.79513,-0.608504 -1.3187,-0.09475 -2.45774,0.271459 -3.77709,0.213963 -1.32172,-0.0576 -2.71491,0.38597 -4.03448,0.362333 -1.32376,-0.02371 -2.49663,-0.595371 -3.81539,-0.588363 l 0.1019,0.297187 -0.43036,0.144151"
         style="opacity:1;fill:url(#radialGradient44046);fill-opacity:1;stroke:#fffa8c;stroke-width:0.02300526" />
    </g>
  </g>
</svg>
